<svg xmlns="http://www.w3.org/2000/svg" xmlns:xlink="http://www.w3.org/1999/xlink" width="492.493" height="443.577" viewBox="0 0 492.493 443.577"><defs><style>.a,.g,.h{fill:none;}.b{fill:#ebebeb;}.c{fill:#e0e0e0;}.d{fill:#f5f5f5;}.e{fill:#263238;}.f{fill:#c7c7c7;}.g{stroke:#3aa4ff;}.h{stroke:#c7c7c7;}.i{fill:#dfdfdf;}.j{clip-path:url(#a);}.k{fill:#0db04b;}.l{opacity:0.3;}.m{fill:#ccc;font-size:5px;font-family:Rawline-Medium, Rawline;font-weight:500;}.n{fill:#455a64;}.o{opacity:0.6;}.p{fill:#fff;}.q{fill:#3aa4ff;}.r,.w{opacity:0.7;}.s{fill:#c99383;}.t{fill:#fabc19;}.u{opacity:0.4;}.v,.w{fill:#773f32;}.v{opacity:0.5;}.x{fill:#976c5f;}</style><clipPath id="a"><rect class="a" width="106" height="11"/></clipPath></defs><g transform="translate(-459.411 -173.774)"><g transform="translate(518.897 173.774)"><g transform="translate(0 0)"><path class="b" d="M583.273,283.168c15.719-15.509,15.807-39.341,11.552-60.02-.716-3.45-.959-7.176-3.13-9.921s-6.382-4.189-9.237-2.2c-2.37,1.653-2.987,4.85-4,7.573a20.675,20.675,0,0,1-6.812,9.171c-2.017,1.521-4.63,2.69-7.022,1.863-3.307-1.1-4.343-5.214-4.905-8.675l-3.175-19.323a32.916,32.916,0,0,0-2.8-10.086c-1.631-3.086-4.53-5.732-7.969-6.085s-7.176,2.2-7.3,5.721a31.744,31.744,0,0,0,.639,4.321c.143,1.455-.254,3.153-1.543,3.781s-2.855-.1-4.067-.937c-4.156-2.877-7.341-6.955-10.361-11.023s-6.008-8.278-9.921-11.53-8.818-5.511-13.867-4.927-9.733,4.508-10.152,9.579,3.307,9.535,7.022,12.952A78.516,78.516,0,0,0,514.92,205.93a6.412,6.412,0,0,1,3.175,2.425c1.1,2.2-.639,4.839-2.789,5.974-2.425,1.3-5.258,1.51-7.9,2.293s-5.346,2.458-5.93,5.181c-.816,3.77,2.767,6.966,6.085,8.884a66.884,66.884,0,0,0,21.473,7.948c2.7.5,5.511.849,7.859,2.282s4.123,4.332,3.307,6.978-3.869,3.968-6.614,3.924-5.379-1.1-8.069-1.6c-5.06-.981-11.122.4-13.47,5.015a11.086,11.086,0,0,0,.5,9.865,25.476,25.476,0,0,0,6.658,7.639,67.441,67.441,0,0,0,31.757,15.079c11.651,1.929,22.046,1.224,32.286-4.652" transform="translate(-489.172 -170.774)"/><path class="c" d="M493.021,174.458a2.115,2.115,0,0,0,.386.276l1.18.739c1.047.639,2.579,1.6,4.519,2.877a130.6,130.6,0,0,1,15.631,11.982c3.109,2.756,6.4,5.919,9.921,9.391s7.143,7.2,10.869,11.265a161,161,0,0,1,11.023,13.3c1.775,2.414,3.439,4.971,5.126,7.584l5.126,7.936A320.784,320.784,0,0,1,574.756,271a156.123,156.123,0,0,1,10.593,27.348,114.161,114.161,0,0,1,3.66,19.444c.209,2.326.342,4.145.386,5.379,0,.584.055,1.047.077,1.4a3.1,3.1,0,0,0,0,.474,2.27,2.27,0,0,0,0-.474v-1.411c0-1.235-.1-3.053-.265-5.39a109.661,109.661,0,0,0-3.472-19.544,153.559,153.559,0,0,0-10.5-27.491,313.122,313.122,0,0,0-17.978-31.217l-5.126-7.936c-1.7-2.6-3.373-5.181-5.17-7.606A152.473,152.473,0,0,0,535.9,210.591c-3.737-4.078-7.44-7.8-10.924-11.243s-6.8-6.614-9.921-9.358a125.828,125.828,0,0,0-15.807-11.861c-1.973-1.246-3.527-2.2-4.6-2.767l-1.2-.683A3.162,3.162,0,0,0,493.021,174.458Z" transform="translate(-488.778 -170.398)"/><path class="c" d="M542,222.933a7.238,7.238,0,0,0,.077-1.521v-4.178c-.1-3.516-.4-8.377-.75-13.735s-.6-10.207-.639-13.723V185.62a7.127,7.127,0,0,0-.066-1.532,6.872,6.872,0,0,0-.187,1.521c-.088.981-.143,2.4-.176,4.167-.066,3.527.088,8.4.452,13.768s.683,10.053.937,13.712c.11,1.653.187,3.042.264,4.156A5.635,5.635,0,0,0,542,222.933Z" transform="translate(-483.947 -169.413)"/><path class="c" d="M500.271,218.82a9.629,9.629,0,0,0,1.808-.088c1.1-.1,2.833-.243,4.905-.353,4.145-.254,9.921-.408,16.2-.3s12.059.463,16.2.838c2.061.176,3.737.364,4.894.485a9.549,9.549,0,0,0,1.808.121,9.968,9.968,0,0,0-1.775-.375c-1.1-.2-2.822-.452-4.883-.683-4.145-.5-9.921-.926-16.237-1.036a158.564,158.564,0,0,0-16.248.485c-2.072.176-3.748.386-4.894.562A9.731,9.731,0,0,0,500.271,218.82Z" transform="translate(-488.036 -166.006)"/><path class="c" d="M567.031,266.7a2.466,2.466,0,0,0,.209-.6c.132-.463.287-1.036.485-1.731.419-1.51.959-3.715,1.587-6.437,1.279-5.456,2.8-13.04,4.409-21.428s3.009-15.994,4.167-21.462c.573-2.657,1.047-4.85,1.389-6.47.154-.705.276-1.29.375-1.775a2.02,2.02,0,0,0,.077-.617,3.075,3.075,0,0,0-.21.6c-.132.463-.287,1.036-.485,1.731-.408,1.51-.948,3.7-1.587,6.437-1.279,5.445-2.8,13.04-4.409,21.429s-3.009,15.939-4.167,21.451c-.573,2.657-1.036,4.85-1.389,6.47l-.364,1.764A2.455,2.455,0,0,0,567.031,266.7Z" transform="translate(-481.291 -167.152)"/><path class="c" d="M510.561,253.04a2.841,2.841,0,0,0,.628.143l1.808.276,6.614.97c5.633.816,13.393,2.039,21.969,3.4s16.358,2.513,22.046,3.208c2.822.353,5.1.617,6.691.761l1.808.066a2.217,2.217,0,0,0,.639,0,2.93,2.93,0,0,0-.628-.143l-1.808-.276-6.614-.97c-5.633-.816-13.393-2.039-21.969-3.4s-16.358-2.513-22.046-3.219c-2.833-.342-5.115-.606-6.7-.761l-1.8-.055A2.217,2.217,0,0,0,510.561,253.04Z" transform="translate(-486.984 -162.362)"/><g transform="translate(291.98 72.053)"><path class="c" d="M899.507,219.472s-11.254-5.511-20.756,20.943-12.478,41.358-12.478,41.358-2.679,5.622-6.691,2.679-10.119-11.971-15.972-9.469c-6.074,2.6-7.253,9.921-4.74,20.073s7.2,32.672,7.617,34.711-.375,5.115-3.428,3.549-21.462-17.493-28.494-8.3,4.619,36.376,5.842,39.385.772,4.409-.606,5.357-7.055-4.982-12.478-9.292-12.478-8.366-16.082-2.723-2.293,27,22.233,58.84l12.279,13.955,18.441-3.384c39.01-9.656,53.34-25.54,54.012-32.209s-7.352-7.881-14.275-7.881-15.079,1.1-15.564-.5.055-2.976,2.866-4.563,28.88-15.619,29.1-27.193-24.107-10.571-27.469-11.243-2.039-3.594-.474-4.905,19.268-16.027,27.557-22.432,11.916-12.842,8.818-18.651c-3.02-5.611-13.426-2.359-18.386-2.546s-3.571-6.261-3.571-6.261,6.966-13.525,15.983-40.134-3.56-29.266-3.56-29.266" transform="translate(-789.744 -218.995)"/><path class="b" d="M888.55,240.888a1.538,1.538,0,0,1-.165.562c-.165.364-.3.948-.529,1.653-.474,1.455-1.179,3.582-2.083,6.305-1.808,5.511-4.5,13.371-7.848,23.148-6.7,19.51-16.193,46.384-26.753,76.058s-20.106,56.448-26.918,75.926c-3.384,9.722-6.129,17.637-8.025,23.071l-2.2,6.272c-.253.694-.441,1.235-.584,1.62s-.209.551-.209.551a1.626,1.626,0,0,1,.154-.562c.154-.364.309-.948.529-1.653.485-1.466,1.19-3.582,2.083-6.305,1.819-5.511,4.5-13.371,7.859-23.148,6.7-19.511,16.182-46.384,26.753-76.058s20.117-56.492,26.918-75.97c3.384-9.722,6.118-17.637,8.025-23.071.948-2.7,1.676-4.817,2.2-6.272.254-.694.452-1.235.584-1.62A2.779,2.779,0,0,1,888.55,240.888Z" transform="translate(-786.654 -216.756)"/><path class="b" d="M845.911,281.508a5.057,5.057,0,0,1,.628,1.19c.375.783.882,1.94,1.488,3.307,1.213,2.855,2.789,6.834,4.409,11.265l4.211,11.354c.507,1.356.948,2.5,1.29,3.428a6.388,6.388,0,0,1,.43,1.279,6.252,6.252,0,0,1-.639-1.191c-.364-.783-.871-1.94-1.466-3.373-1.19-2.866-2.712-6.867-4.409-11.3s-3.142-8.3-4.288-11.31l-1.312-3.428A6.923,6.923,0,0,1,845.911,281.508Z" transform="translate(-783.999 -212.601)"/><path class="b" d="M858.831,311.976c-.066-.143,8-3.759,18.022-8.069s18.188-7.716,18.254-7.529-8,3.759-18.022,8.069S858.9,312.119,858.831,311.976Z" transform="translate(-782.677 -211.081)"/><path class="b" d="M842.241,351.7a6.979,6.979,0,0,1,1.356-.231l3.726-.463c3.13-.386,7.462-.948,12.213-1.742s9.039-1.631,12.125-2.282l3.671-.761a7.133,7.133,0,0,1,1.356-.22,5.508,5.508,0,0,1-1.3.441c-.86.242-2.094.573-3.638.937-3.075.75-7.352,1.675-12.125,2.458s-9.116,1.29-12.28,1.576c-1.576.143-2.855.243-3.737.276A5.965,5.965,0,0,1,842.241,351.7Z" transform="translate(-783.687 -206.004)"/><path class="b" d="M824.781,327.488a6.152,6.152,0,0,1,.86.948l2.2,2.7c1.808,2.3,3.56,6.415,6.966,9.05,2.69,3.56,5.1,6.8,6.823,9.16l2.017,2.822a5.077,5.077,0,0,1,.672,1.1,5.727,5.727,0,0,1-.849-.948c-.6-.739-1.312-1.642-2.2-2.7-1.808-2.3-4.266-5.511-6.955-9.061s-5.115-6.79-6.834-9.149l-2.006-2.844A5.322,5.322,0,0,1,824.781,327.488Z" transform="translate(-785.472 -207.898)"/><path class="b" d="M805.581,361.508a10.356,10.356,0,0,1,1.1,1.224l2.789,3.45c2.326,2.932,5.511,7.011,9.017,11.53s6.614,8.642,8.873,11.64l2.646,3.571a9.394,9.394,0,0,1,.9,1.356,8.121,8.121,0,0,1-1.1-1.224l-2.789-3.406c-2.337-2.932-5.511-7.011-9.017-11.541s-6.614-8.631-8.884-11.629l-2.623-3.616A8.164,8.164,0,0,1,805.581,361.508Z" transform="translate(-787.359 -204.418)"/><path class="b" d="M828.191,391.148a12.135,12.135,0,0,1,1.709-.342l4.7-.75c3.957-.639,9.425-1.543,15.432-2.712S861.447,385,865.36,384.1L870,383.058a9.354,9.354,0,0,1,1.709-.32,12.278,12.278,0,0,1-1.653.54c-1.1.309-2.656.739-4.6,1.224-3.891.992-9.3,2.26-15.322,3.417s-11.5,2.006-15.432,2.546c-2,.265-3.6.452-4.729.573A9.316,9.316,0,0,1,828.191,391.148Z" transform="translate(-785.124 -202.246)"/></g></g><g transform="translate(89.098 68.931)"><rect class="d" width="236.23" height="296.356" transform="translate(0.425 0.204)"/><path class="e" d="M574.391,175.542l236.23-.2h.195V472.129H574.131v-.213c.13-176.1.213-294.455.213-296.346,0,1.854.093,120.243.223,296.346l-.223-.213h236.23l-.241.241h0V175.625l.2.195Z" transform="translate(-574.131 -175.338)"/><path class="f" d="M792.581,280.474a1.642,1.642,0,0,0,1.029-.436c.677-.528.389-1.78.445-3.245,0-2.985,0-7.417-.046-13.036v-5.674a5,5,0,0,0-.074-1.187,1.422,1.422,0,0,0-.751-.834,2.73,2.73,0,0,0-1.215-.13H753.436L595.19,256a1.3,1.3,0,0,0-1.048.529,1.8,1.8,0,0,0-.25,1.242V279.13a1.258,1.258,0,0,0,.686.927,1.212,1.212,0,0,0,.566.139h60.729l71.141.056,47.962.074,13.036.046h0l-13.036.046-47.962.074-71.141.056H595.143a1.76,1.76,0,0,1-1.724-1.446,10.768,10.768,0,0,1,0-1.446V257.861a7.45,7.45,0,0,1,0-.76,1.671,1.671,0,0,1,.315-.76,1.769,1.769,0,0,1,1.437-.732l158.247.074H791.95a2.905,2.905,0,0,1,1.307.158,1.627,1.627,0,0,1,.862.927,4.892,4.892,0,0,1,.083,1.252v5.674c0,5.656,0,10.05-.046,13.036V278.7a1.606,1.606,0,0,1-.482,1.409A1.41,1.41,0,0,1,792.581,280.474Z" transform="translate(-575.534 -181.185)"/><path class="f" d="M792.581,341.651a1.634,1.634,0,0,0,1.029-.445c.677-.519.389-1.78.445-3.236,0-2.995,0-7.417-.046-13.045v-5.674a4.92,4.92,0,0,0-.074-1.177,1.47,1.47,0,0,0-.751-.844,2.871,2.871,0,0,0-1.215-.13H753.436l-158.247.074a1.27,1.27,0,0,0-1.048.529,1.786,1.786,0,0,0-.25,1.242v21.417a1.287,1.287,0,0,0,.686.927,1.328,1.328,0,0,0,.566.139H727.012l47.962.074h0l-47.962.074-71.141.056H595.143a1.761,1.761,0,0,1-1.724-1.437,10.906,10.906,0,0,1,0-1.456V319a7.45,7.45,0,0,1,0-.76,1.685,1.685,0,0,1,.315-.77,1.762,1.762,0,0,1,1.437-.723l158.247.065H791.95a3.042,3.042,0,0,1,1.307.158,1.642,1.642,0,0,1,.862.983,4.823,4.823,0,0,1,.083,1.242v5.674c0,5.656,0,10.05-.046,13.045v1.966a1.6,1.6,0,0,1-.5,1.307A1.444,1.444,0,0,1,792.581,341.651Z" transform="translate(-575.534 -185.639)"/><rect class="g" width="200.46" height="24.662" transform="translate(18.107 184.893)"/><rect class="h" width="200.46" height="24.662" transform="translate(17.725 228.321)"/><rect class="i" width="46" height="11" transform="translate(17.908 59.646)"/><rect class="i" width="46" height="11" transform="translate(17.908 115.646)"/><rect class="i" width="46" height="11" transform="translate(28.908 191.646)"/><g class="j" transform="translate(28.908 235.646)"><g transform="translate(-28.908 -235.646)"><rect class="i" width="12" height="11" transform="translate(28.908 235.646)"/></g><g transform="translate(-11.908 -235.646)"><rect class="i" width="12" height="11" transform="translate(28.908 235.646)"/></g><g transform="translate(5.092 -235.646)"><rect class="i" width="12" height="11" transform="translate(28.908 235.646)"/></g><g transform="translate(22.092 -235.646)"><rect class="i" width="12" height="11" transform="translate(28.908 235.646)"/></g><g transform="translate(39.092 -235.646)"><rect class="i" width="12" height="11" transform="translate(28.908 235.646)"/></g><g transform="translate(56.092 -235.646)"><rect class="i" width="12" height="11" transform="translate(28.908 235.646)"/></g></g><rect class="i" width="72" height="17" transform="translate(81.908 19.646)"/></g><g transform="translate(363.798 296.759)"><path class="k" d="M879.257,549.628c-.739-2.91,1.19-5.831,3.307-7.936s4.729-3.979,5.864-6.768c1.83-4.519-.562-10.406,2.535-14.164,1.83-2.2,5.082-2.932,6.7-5.3a12.316,12.316,0,0,0,1.477-4.244,43.078,43.078,0,0,1,10.836-20,37.378,37.378,0,0,1-4.321,19.312c-1.257,2.37-2.8,4.674-3.23,7.33-.694,4.3,1.676,8.752.6,12.974-1.235,4.828-6.68,8.036-6.966,13.007-.243,4.211,3.406,7.925,3.108,12.125a11.4,11.4,0,0,1-1.907,4.982c-3.307,5.39-8.08,9.094-15.333,8.929l-8.873.264Z" transform="translate(-840.812 -432.532)"/><g class="l" transform="translate(32.239 58.686)"><path d="M879.257,549.628c-.739-2.91,1.19-5.831,3.307-7.936s4.729-3.979,5.864-6.768c1.83-4.519-.562-10.406,2.535-14.164,1.83-2.2,5.082-2.932,6.7-5.3a12.316,12.316,0,0,0,1.477-4.244,43.078,43.078,0,0,1,10.836-20,37.378,37.378,0,0,1-4.321,19.312c-1.257,2.37-2.8,4.674-3.23,7.33-.694,4.3,1.676,8.752.6,12.974-1.235,4.828-6.68,8.036-6.966,13.007-.243,4.211,3.406,7.925,3.108,12.125a11.4,11.4,0,0,1-1.907,4.982c-3.307,5.39-8.08,9.094-15.333,8.929l-8.873.264Z" transform="translate(-873.051 -491.218)"/></g><path class="e" d="M874.235,573.25a7.244,7.244,0,0,1-2.447-.066,15.323,15.323,0,0,1-2.877-.739,12.272,12.272,0,0,1-3.549-1.973,4.894,4.894,0,0,1-1.455-1.962,9.08,9.08,0,0,1-.408-2.656,25.98,25.98,0,0,0-.187-2.866,8.069,8.069,0,0,0-1.1-2.866c-1.036-1.841-2.767-3.594-3.307-6.1a21.325,21.325,0,0,1,.276-7.771c.419-2.656.849-5.567-.154-8.344s-2.866-5.291-3.825-8.433-.485-6.559-.661-9.921a13.313,13.313,0,0,0-1.1-4.938c-.705-1.576-1.7-3.064-2.458-4.718-1.565-3.307-1.819-7.143-2.2-10.869-.2-1.863-.4-3.759-.606-5.666a28.328,28.328,0,0,0-.948-5.688,51.773,51.773,0,0,0-2.094-5.511,17.273,17.273,0,0,1-1.014-2.877c-.165-1.047-.209-2.028-.276-3.053a35.728,35.728,0,0,1,.276-6.14c.253-2.05.639-4.078.871-6.129v-.353l.055-.408.364.176a13.689,13.689,0,0,1,4.806,4.045,21.534,21.534,0,0,1,2.91,5.423,67.327,67.327,0,0,1,2.7,11.64,31.385,31.385,0,0,0,3.582,10.747c.959,1.587,2.127,3.042,3.153,4.586a12.752,12.752,0,0,1,2.2,5.071c.507,3.759-1.587,7.044-1.168,10.373a11.632,11.632,0,0,0,1.587,4.619c.8,1.422,1.742,2.745,2.635,4.067a25.955,25.955,0,0,1,2.359,4.112,13.053,13.053,0,0,1,1.1,4.409c.209,3-.232,5.831,0,8.51a19.516,19.516,0,0,0,2.2,7.308c1.1,2.2,2.2,4.167,3.23,6.1.5.959.959,1.9,1.334,2.833a13.708,13.708,0,0,1,.761,2.811,17.37,17.37,0,0,1,0,5.06,12.713,12.713,0,0,1-2.568,6.448,5.479,5.479,0,0,1-.728.772,3.532,3.532,0,0,1-.584.5c-.331.242-.507.353-.507.353a12.1,12.1,0,0,0,1.731-1.687,12.923,12.923,0,0,0,2.436-6.4,17.791,17.791,0,0,0-.077-4.993,14.466,14.466,0,0,0-.772-2.745q-.6-1.432-1.345-2.8c-.992-1.907-2.2-3.88-3.307-6.085a20.015,20.015,0,0,1-2.2-7.429c-.209-2.745.209-5.589,0-8.51a12.66,12.66,0,0,0-1.036-4.31,25.324,25.324,0,0,0-2.337-4.023c-.893-1.323-1.841-2.646-2.668-4.1a12.1,12.1,0,0,1-1.664-4.795c-.408-3.549,1.664-6.856,1.1-10.351a12.152,12.152,0,0,0-2.105-4.85c-1-1.521-2.2-2.965-3.175-4.6a32.125,32.125,0,0,1-3.671-10.935c-.727-3.836-1.234-7.793-2.679-11.541a20.972,20.972,0,0,0-2.822-5.28,13.239,13.239,0,0,0-4.552-3.891l.408-.232v.364c-.231,2.072-.617,4.112-.86,6.129a34.79,34.79,0,0,0-.342,6.151c.055.992.11,2.028.253,2.965a19.233,19.233,0,0,0,.981,2.767,50.918,50.918,0,0,1,2.116,5.567,27.8,27.8,0,0,1,.959,5.776c.2,1.907.408,3.8.6,5.677.408,3.737.661,7.462,2.2,10.7.739,1.609,1.731,3.1,2.458,4.729a13.726,13.726,0,0,1,1.1,5.115c.176,3.428-.287,6.768.617,9.81s2.833,5.511,3.792,8.421.584,5.9.143,8.543-.893,5.269-.331,7.639,2.2,4.122,3.23,6.018a8.224,8.224,0,0,1,1.1,2.965,27.321,27.321,0,0,1,.165,2.91,9.078,9.078,0,0,0,.364,2.579,4.72,4.72,0,0,0,1.367,1.874,12.116,12.116,0,0,0,3.461,1.984,15.783,15.783,0,0,0,2.844.794,11.032,11.032,0,0,0,1.8.176Z" transform="translate(-843.803 -435.397)"/><path class="e" d="M846.553,468.038a2.686,2.686,0,0,1,.077.276l.2.794c.165.705.364,1.753.694,3.075a48.35,48.35,0,0,0,1.819,4.652,65.644,65.644,0,0,1,2.072,6.305c.661,2.37,1.246,5,1.863,7.815a32.586,32.586,0,0,0,2.789,8.686c.716,1.444,1.532,2.91,2.2,4.508a20.469,20.469,0,0,1,1.246,5.1A104.56,104.56,0,0,0,861.368,520l4.872,20.514c1.543,6.294,2.943,11.971,4.112,16.755s2.072,8.587,2.723,11.3c.3,1.3.54,2.337.716,3.086l.165.8a1.292,1.292,0,0,1,0,.276.946.946,0,0,1-.1-.265l-.231-.794c-.2-.739-.463-1.764-.816-3.053-.694-2.7-1.675-6.537-2.9-11.254s-2.635-10.439-4.222-16.722-3.2-13.227-4.949-20.547a99.86,99.86,0,0,1-1.852-10.791,20.763,20.763,0,0,0-1.2-4.971c-.617-1.565-1.422-3.02-2.138-4.475a33.21,33.21,0,0,1-2.778-8.818c-.6-2.833-1.157-5.456-1.786-7.815s-1.312-4.475-1.984-6.305a45.642,45.642,0,0,1-1.731-4.707c-.32-1.4-.463-2.392-.606-3.108l-.132-.8A1.064,1.064,0,0,1,846.553,468.038Z" transform="translate(-843.524 -434.903)"/><path class="k" d="M870.592,575.83c-5.787-3.483-7.385-13.955-4.927-20.238s6.713-12,7.407-18.739c.529-5.148-1.1-10.461.1-15.5,1.664-6.79,8.333-12.026,8.3-19.026,0-3.924-2.2-7.628-2.039-11.552.253-4.806,3.968-8.6,6.272-12.831,3.538-6.459,3.814-14.131,5.049-21.4s4.056-15.035,10.527-18.574c.915,6.184,2.513,10.417,1.951,18.739-.2,3-3.715,8.73-4.233,15.311-.309,3.935-.518,7.87-.783,11.805s-.529,7.716-1.918,11.309c-1.1,2.745-2.778,5.225-3.571,8.058-1.51,5.324.4,11.122-.827,16.534-1.025,4.574-4.222,8.488-4.894,13.139-.948,6.515,3.241,13.316,1.036,19.533-1.1,3.075-3.638,5.511-4.409,8.73-.573,2.469,0,5.093-.507,7.573-.838,4-8.488,7.077-12.566,6.8" transform="translate(-841.681 -437.978)"/><path class="e" d="M899.105,443.548a1.72,1.72,0,0,1,0,.353l-.132,1.014c-.143.893-.3,2.2-.606,3.891s-1.224,3.616-1.94,5.919-1.5,4.949-2.2,7.925-1.246,6.261-1.852,9.8a41.176,41.176,0,0,1-3.031,11.023c-.827,1.841-1.753,3.693-2.447,5.666a25.773,25.773,0,0,0-1.257,6.261,124.257,124.257,0,0,1-1.775,13.492c-1.83,9.138-3.571,17.835-5.148,25.76s-3.175,15-4.409,20.943-2.315,10.758-3.031,14.131q-.541,2.47-.86,3.836c-.1.419-.176.75-.231,1a2.856,2.856,0,0,1-.1.331,1.272,1.272,0,0,1,0-.342c.055-.265.11-.6.187-1.014l.75-3.858,2.855-14.175c1.234-5.985,2.69-13.106,4.321-21.01s3.307-16.622,5.1-25.749a128.948,128.948,0,0,0,1.775-13.448,26.711,26.711,0,0,1,1.3-6.393c.716-2.006,1.653-3.869,2.48-5.7a41.336,41.336,0,0,0,3.053-10.946c.617-3.527,1.213-6.823,1.918-9.8a81.874,81.874,0,0,1,2.26-7.937c.75-2.315,1.664-4.211,2.028-5.875s.529-2.976.706-3.858c.077-.419.143-.75.2-1S899.105,443.548,899.105,443.548Z" transform="translate(-841.116 -437.408)"/></g></g><g transform="translate(459.411 608.099)"><path class="e" d="M938.17,563.065c0,.165-107.179.286-239.369.286s-239.391-.11-239.391-.286,107.168-.287,239.4-.287S938.17,562.921,938.17,563.065Z" transform="translate(-459.411 -562.778)"/></g><text class="m" transform="translate(851.903 615.351)"><tspan x="0" y="0">Illustration by Freepik Storyset</tspan></text><g transform="translate(471.706 254.141)"><path class="n" d="M557.344,309.2l30.114,36.041,27.662-25,12.064,11.765s-34.709,38.194-40.006,37.923-29.9-15.517-29.9-15.517Z" transform="translate(-471.569 -238.46)"/><path class="n" d="M542,563.659l.088,31.409,39.077.1c-.218-3.729-20.423-11.275-20.423-11.275l.771-20.135Z" transform="translate(-471.392 -241.408)"/><g class="o" transform="translate(76.141 340.729)"><path class="p" d="M548.728,582.382a1.6,1.6,0,0,0-1.1,1.821,1.533,1.533,0,0,0,1.795,1.112,1.69,1.69,0,0,0,1.164-1.935,1.6,1.6,0,0,0-2-.945" transform="translate(-547.598 -582.353)"/></g><g class="o" transform="translate(70.697 350.491)"><path class="p" d="M542.09,595.4V592.23l37.537,1.244s1.75.761,1.54,1.987Z" transform="translate(-542.09 -592.23)"/></g><path class="e" d="M561.568,583.921c0,.193-.964.28-1.9.875s-1.444,1.41-1.62,1.331.106-1.173,1.261-1.9S561.638,583.746,561.568,583.921Z" transform="translate(-471.578 -241.64)"/><path class="e" d="M565.716,585.649c.044.184-.78.507-1.427,1.313s-.876,1.664-1.033,1.655-.306-1.094.517-2.075S565.716,585.465,565.716,585.649Z" transform="translate(-471.637 -241.662)"/><path class="e" d="M568.09,590.58c-.175.044-.438-.875.052-1.96s1.392-1.454,1.471-1.3-.473.718-.876,1.585S568.283,590.563,568.09,590.58Z" transform="translate(-471.692 -241.681)"/><path class="e" d="M561.225,579.257c-.087.175-.954-.087-2.039,0s-1.917.4-2.013.245.709-.875,1.978-.875S561.313,579.108,561.225,579.257Z" transform="translate(-471.568 -241.581)"/><path class="e" d="M560.274,574.533a3.629,3.629,0,0,1-1.961,0,8.864,8.864,0,0,1-2.048-.638,9.427,9.427,0,0,1-1.121-.6,2.64,2.64,0,0,1-.586-.465.876.876,0,0,1-.088-1.015,1.058,1.058,0,0,1,.876-.438,2.508,2.508,0,0,1,.727.1,6.852,6.852,0,0,1,1.217.42,6.658,6.658,0,0,1,1.768,1.191c.876.875,1.217,1.558,1.147,1.593s-.525-.535-1.444-1.234a8.429,8.429,0,0,0-1.75-.989,7.25,7.25,0,0,0-1.121-.341c-.42-.114-.77-.114-.876.07s-.043.1.044.218a2.069,2.069,0,0,0,.429.333,11.61,11.61,0,0,0,1.033.595,10.676,10.676,0,0,0,1.891.726A13.453,13.453,0,0,1,560.274,574.533Z" transform="translate(-471.535 -241.497)"/><path class="e" d="M560.08,574.816a3.151,3.151,0,0,1-.507-1.891,6.382,6.382,0,0,1,.77-3.326,1.592,1.592,0,0,1,1.252-.98.874.874,0,0,1,.813.543,2.479,2.479,0,0,1,.2.718,4.482,4.482,0,0,1,0,1.322,4.581,4.581,0,0,1-.876,2.013c-.77,1.016-1.567,1.243-1.584,1.173a8.2,8.2,0,0,0,1.191-1.426,4.452,4.452,0,0,0,.622-1.839,4.234,4.234,0,0,0,0-1.139c-.061-.411-.22-.743-.377-.709a1.384,1.384,0,0,0-.683.64,6.808,6.808,0,0,0-.49,1.068,7.269,7.269,0,0,0-.386,1.952C559.984,574.029,560.186,574.746,560.08,574.816Z" transform="translate(-471.596 -241.465)"/><path class="n" d="M485.072,559.833,480.51,590.9l38.631,5.882c.333-3.728-18.523-14.181-18.523-14.181l3.738-19.784Z" transform="translate(-470.68 -241.363)"/><g class="o" transform="translate(16.911 337.721)"><path class="p" d="M489.041,579.317a1.6,1.6,0,0,0-1.366,1.629,1.55,1.55,0,0,0,1.611,1.374,1.689,1.689,0,0,0,1.435-1.751,1.585,1.585,0,0,0-1.829-1.235" transform="translate(-487.674 -579.31)"/></g><g class="o" transform="translate(9.83 346.412)"><path class="p" d="M480.51,591.237l.456-3.134,36.95,6.819s1.6,1.007,1.226,2.2Z" transform="translate(-480.51 -588.103)"/></g><path class="e" d="M501.473,582.777c0,.184-.989.132-2.013.6s-1.637,1.181-1.794,1.076.28-1.147,1.523-1.689S501.543,582.61,501.473,582.777Z" transform="translate(-470.878 -241.626)"/><path class="e" d="M505.327,585.1c0,.184-.876.384-1.62,1.085s-1.067,1.514-1.26,1.48-.14-1.121.823-1.979S505.345,584.916,505.327,585.1Z" transform="translate(-470.933 -241.655)"/><path class="e" d="M506.936,590.326c-.175,0-.3-.973.351-1.935s1.584-1.234,1.637-1.059-.569.63-1.085,1.426S507.129,590.334,506.936,590.326Z" transform="translate(-470.985 -241.681)"/><path class="e" d="M501.825,578.11c-.1.157-.927-.236-2-.324s-1.961.123-2.039-.052.875-.735,2.1-.6S501.939,577.979,501.825,578.11Z" transform="translate(-470.88 -241.564)"/><path class="e" d="M501.586,573.294a3.569,3.569,0,0,1-1.934-.306,8.747,8.747,0,0,1-1.935-.928,9.775,9.775,0,0,1-1.015-.752,2.288,2.288,0,0,1-.517-.552.879.879,0,0,1,.061-1.016,1.071,1.071,0,0,1,.876-.305,2.682,2.682,0,0,1,.709.209,6.992,6.992,0,0,1,2.749,2.04c.771.972.973,1.75.876,1.75s-.447-.613-1.251-1.436a7.771,7.771,0,0,0-1.577-1.234,6.559,6.559,0,0,0-1.059-.508c-.394-.175-.744-.227-.876-.061s-.052.088,0,.218a2.022,2.022,0,0,0,.386.4,10.68,10.68,0,0,0,2.687,1.75A14.9,14.9,0,0,1,501.586,573.294Z" transform="translate(-470.86 -241.475)"/><path class="e" d="M501.356,573.509a3.174,3.174,0,0,1-.228-1.952,6.341,6.341,0,0,1,1.261-3.178,1.628,1.628,0,0,1,1.383-.788.874.874,0,0,1,.726.665,2.535,2.535,0,0,1,.088.735,4.148,4.148,0,0,1-.2,1.3,4.447,4.447,0,0,1-1.129,1.873,2.544,2.544,0,0,1-1.751.928,8.105,8.105,0,0,0,1.392-1.243,4.431,4.431,0,0,0,.876-1.75,3.941,3.941,0,0,0,.14-1.12c0-.421-.1-.78-.263-.762a1.429,1.429,0,0,0-.779.534,7.621,7.621,0,0,0-.64.981,7.259,7.259,0,0,0-.665,1.873C501.364,572.757,501.452,573.492,501.356,573.509Z" transform="translate(-470.918 -241.453)"/><path class="e" d="M561.7,479.462c.3-9.629-1.891-69.34-1.891-69.34l-66.172,1.164c.29.876-11.94,165.047-11.94,165.047l21.64,1.173,9.883-76.921s4.123-7.879,4.377-10.549c.341-3.5,9.892-50.317,9.892-50.317s3.834,26.437,7.117,56.568c3.878,35.6,4.753,75.985,5.252,79.705l23.522-.3S561.411,489.109,561.7,479.462Z" transform="translate(-470.694 -239.629)"/><path class="n" d="M529.3,419.014a13.869,13.869,0,0,1,.122,2.495v6.014a30.758,30.758,0,0,1-.115,3.317,6.982,6.982,0,0,1-.726,2.626,3.161,3.161,0,0,1-1.794,1.751,5.346,5.346,0,0,0,1.505-1.883,7.169,7.169,0,0,0,.595-2.556c.07-1,.053-2.118.079-3.291,0-2.345.1-4.473.157-6.014A14.131,14.131,0,0,1,529.3,419.014Z" transform="translate(-471.216 -239.732)"/><path class="n" d="M527.152,420.64a4.852,4.852,0,0,1-.157-.552,2.3,2.3,0,0,0-.876-1.19,2.2,2.2,0,0,0-2.049-.272,2.154,2.154,0,0,0,1.556,4.017,2.193,2.193,0,0,0,.493-.27,2.289,2.289,0,0,0,.876-1.182,4.912,4.912,0,0,1,.157-.552,1.167,1.167,0,0,1,0,.6,2.319,2.319,0,0,1-.876,1.4,2.5,2.5,0,0,1-2.4.4,2.539,2.539,0,1,1,2.4-4.377,2.317,2.317,0,0,1,.876,1.4C527.231,420.431,527.178,420.64,527.152,420.64Z" transform="translate(-471.162 -239.722)"/><path class="n" d="M561.122,423.647a2.906,2.906,0,0,1-.622.1,9.005,9.005,0,0,1-1.689-.052,13.552,13.552,0,0,1-9.445-5.506,8.412,8.412,0,0,1-.876-1.453c-.175-.359-.254-.569-.227-.586s.481.743,1.357,1.846a14.877,14.877,0,0,0,9.279,5.366C560.239,423.594,561.122,423.568,561.122,423.647Z" transform="translate(-471.465 -239.699)"/><path class="n" d="M515.259,498.519a3.026,3.026,0,0,1-.473.674c-.323.42-.8,1.007-1.417,1.75-1.234,1.427-2.994,3.345-5.034,5.367s-3.991,3.755-5.427,4.972c-.727.6-1.313,1.085-1.75,1.4a2.786,2.786,0,0,1-.683.464,23.314,23.314,0,0,1,2.2-2.109c1.383-1.269,3.282-3.037,5.323-5.051s3.825-3.9,5.112-5.252A23.361,23.361,0,0,1,515.259,498.519Z" transform="translate(-470.911 -240.653)"/><path class="n" d="M517.745,303.233l-5.909.945,24.152,36.268,6.443-36.609Z" transform="translate(-471.043 -238.391)"/><path class="q" d="M559.248,308.921c-4.656-2.1-17.043-5.077-17.043-5.077l-6.443,28.73-24.152-28.389s-16.5,2.1-19.381,4.088l.087.315L504.851,355.6a6.428,6.428,0,0,1-.64,5.419l-8.483,13.612-1.2,21.245-.806,14.182s27,5.944,33.747,6.128,33.352-5.252,33.352-5.252-1.435-76.37-1.409-81.929C559.484,323.252,559.248,308.921,559.248,308.921Z" transform="translate(-470.816 -238.398)"/><g class="r" transform="translate(23.88 134.435)"><path class="p" d="M495.522,380.347c1.75-1.015,64.665-6.705,64.665-6.705l.254,14.094-65.716,4.07.552-7.178Z" transform="translate(-494.725 -373.642)"/></g><g class="r" transform="translate(23.101 153.72)"><path class="p" d="M560.528,393.153l.254,13.726-66.845,1.374.648-11.345Z" transform="translate(-493.937 -393.153)"/></g><path class="n" d="M492.068,357.965l3.695,17.018,8.894-14.27a5.093,5.093,0,0,0,.577-4.061l-6.188-22.227-7,23.54" transform="translate(-470.814 -238.753)"/><path class="n" d="M491.977,308.307a12.414,12.414,0,0,0-3.318,3.362c-1.138,1.891-18.094,57.094-18.094,59.483s10.706,33.213,10.706,33.213l17.2-6.574-7.616-28.285,9.516-29.684Z" transform="translate(-470.565 -238.45)"/><path class="e" d="M491.267,370.88a22.523,22.523,0,0,0-2.241-1.751c-1.366-.779-2.626-1.042-2.626-1.173a5.4,5.4,0,0,1,4.858,2.95Z" transform="translate(-470.748 -239.141)"/><path class="e" d="M491.121,370.223a6.526,6.526,0,0,1,.341,1.1c.218.806.49,1.822.822,3.029.692,2.556,1.752,6.066,2.863,9.944s2.118,7.414,2.74,10c.306,1.3.542,2.345.674,3.073a6.327,6.327,0,0,1,.175,1.138,5.616,5.616,0,0,1-.351-1.1c-.209-.8-.489-1.812-.813-3.021-.692-2.556-1.75-6.075-2.862-9.952s-2.127-7.415-2.74-10c-.306-1.287-.543-2.337-.683-3.063A4.9,4.9,0,0,1,491.121,370.223Z" transform="translate(-470.803 -239.167)"/><path class="e" d="M498.71,344.619a4.813,4.813,0,0,1-.07,1.06c-.07.674-.218,1.655-.446,2.854a68.719,68.719,0,0,1-2.53,9.183c-1.2,3.5-2.39,6.67-3.2,8.955l-.973,2.713a4.593,4.593,0,0,1-.393.98,4.408,4.408,0,0,1,.227-1.033c.175-.656.465-1.6.832-2.758.735-2.328,1.882-5.489,3.081-9a90.065,90.065,0,0,0,2.626-9.113c.263-1.181.464-2.145.586-2.81A4.559,4.559,0,0,1,498.71,344.619Z" transform="translate(-470.803 -238.871)"/><path class="s" d="M499.207,432.361a23.269,23.269,0,0,0,8.351-6.514.306.306,0,0,1,0-.253.4.4,0,0,1,.3-.123,39.891,39.891,0,0,0,2.626-3.45c-2.075-1.8-4.737-4.456-1.436-4.465,4.054,0,7.17-1.549,7.722-2.556s-.64-2.136-1.75-1.6a14.7,14.7,0,0,1-4.01.789,9.61,9.61,0,0,1-3.274-.245c-.665-.167-2.81-2.128-5.182-3.668a2,2,0,0,0-1.138-.315l-.955-.2a3.019,3.019,0,0,1-2.241-1.952l-2.179-7.957-11.9,4.543,6.46,14.287A154.515,154.515,0,0,0,499.207,432.361Z" transform="translate(-470.722 -239.51)"/><path class="n" d="M496.886,433.563a9.017,9.017,0,0,0,2.731-.876,23.37,23.37,0,0,0,10.427-8.841,9.214,9.214,0,0,0,1.286-2.556c-.166-.114-2.127,3.87-6.224,7.3S496.8,433.379,496.886,433.563Z" transform="translate(-470.87 -239.759)"/><path class="e" d="M534.986,416.931c-.123,0-.044-18.813.175-42.019s.5-42.02.622-42.02.052,18.813-.166,42.02S535.109,416.94,534.986,416.931Z" transform="translate(-471.31 -238.735)"/><path class="t" d="M549.922,266.651c3.86-1.067,6.224-2.477,6.2-4s-6.706-5.121-8.255-6.049c-3.65-2.188-8.018.586-14.453.665-12.509.166-22.611,2.836-22.568,5.979,0,1.505,2.39,2.854,6.242,3.816" transform="translate(-471.031 -237.842)"/><g class="u" transform="translate(42.089 20.429)"><path d="M547.786,266.585c3.423-.946,5.6-2.206,5.5-3.5-.289-3.738-9.052-4.919-20.134-4.771s-20.038,2.513-20,5.252c0,1.339,2.127,2.53,5.541,3.388" transform="translate(-513.147 -258.3)"/></g><path class="s" d="M549.442,263.493a18.3,18.3,0,0,0-17.717-17.4h-.946c-10.242.281-15.757,9.131-15.161,19.364l1.076,37.756a11.537,11.537,0,0,0,11.538,11.2h0a11.536,11.536,0,0,0,11.538-11.537v-4.92c0-.044,9.865-1.226,10.294-11.048C550.257,282.2,549.88,272.361,549.442,263.493Z" transform="translate(-471.086 -237.73)"/><path class="v" d="M539.886,298.516a23.769,23.769,0,0,1-12.675-4.184s2.845,6.188,12.675,5.6Z" transform="translate(-471.221 -238.288)"/><path class="e" d="M546.476,271.919a1.4,1.4,0,0,1-1.392,1.374,1.34,1.34,0,0,1-1.408-1.267l0-.045a1.409,1.409,0,0,1,1.392-1.375,1.34,1.34,0,0,1,1.408,1.267Z" transform="translate(-471.412 -238.013)"/><path class="e" d="M547.489,268.479c-.175.175-1.217-.647-2.731-.691s-2.626.682-2.792.49.1-.412.6-.744a3.834,3.834,0,0,1,2.241-.613,3.669,3.669,0,0,1,2.172.77C547.445,268.059,547.577,268.435,547.489,268.479Z" transform="translate(-471.391 -237.971)"/><path class="e" d="M531.6,271.857a1.408,1.408,0,0,1-1.4,1.374,1.341,1.341,0,0,1-1.4-1.276v-.037a1.4,1.4,0,0,1,1.392-1.375,1.341,1.341,0,0,1,1.409,1.267Z" transform="translate(-471.239 -238.013)"/><path class="e" d="M532.469,268.293c-.184.175-1.217-.639-2.732-.683s-2.626.674-2.792.49.1-.411.6-.752a3.837,3.837,0,0,1,2.242-.613,3.668,3.668,0,0,1,2.162.77C532.39,267.882,532.556,268.215,532.469,268.293Z" transform="translate(-471.217 -237.969)"/><path class="e" d="M537.764,279.659a10.268,10.268,0,0,1,2.468-.359c.385,0,.753-.1.823-.359a1.894,1.894,0,0,0-.218-1.147l-1.051-2.977c-1.453-4.227-2.495-7.695-2.32-7.756s1.488,3.327,2.942,7.555l1,2.985a2.221,2.221,0,0,1,.149,1.523.956.956,0,0,1-.648.543,2.661,2.661,0,0,1-.656.07A9.561,9.561,0,0,1,537.764,279.659Z" transform="translate(-471.34 -237.972)"/><path class="e" d="M533.195,280.728c.245,0,.193,1.628,1.567,2.837s3.116,1.085,3.116,1.313-.393.306-1.138.306a4.085,4.085,0,0,1-2.626-1.006,3.545,3.545,0,0,1-1.208-2.373C532.888,281.114,533.081,280.71,533.195,280.728Z" transform="translate(-471.287 -238.131)"/><path class="e" d="M532.8,263.9c-.166.4-1.664.167-3.441.324s-3.23.6-3.449.219c-.1-.176.157-.552.753-.937a5.748,5.748,0,0,1,2.573-.814,5.814,5.814,0,0,1,2.626.4C532.544,263.379,532.868,263.712,532.8,263.9Z" transform="translate(-471.206 -237.922)"/><path class="e" d="M547.211,264.669c-.272.332-1.3-.052-2.556-.114s-2.311.157-2.547-.2c-.1-.184.078-.516.552-.876a3.545,3.545,0,0,1,2.091-.5,3.669,3.669,0,0,1,2.022.752C547.2,264.144,547.333,264.5,547.211,264.669Z" transform="translate(-471.393 -237.925)"/><path class="s" d="M517.674,271.832c-.166-.079-6.688-2.206-6.679,4.517s6.749,5.332,6.758,5.139S517.674,271.832,517.674,271.832Z" transform="translate(-471.033 -238.023)"/><path class="w" d="M515.724,278.965s-.122.078-.314.175a1.176,1.176,0,0,1-.876,0,2.913,2.913,0,0,1-1.348-2.626,3.875,3.875,0,0,1,.333-1.681,1.32,1.32,0,0,1,.875-.875.586.586,0,0,1,.692.315c.087.192.044.323.087.332s.14-.114.088-.385a.716.716,0,0,0-.263-.42.879.879,0,0,0-.647-.175,1.637,1.637,0,0,0-1.226,1.042,3.853,3.853,0,0,0-.4,1.873,3.044,3.044,0,0,0,1.707,2.907,1.253,1.253,0,0,0,1.068-.175C515.707,279.131,515.742,279.018,515.724,278.965Z" transform="translate(-471.053 -238.048)"/><path class="t" d="M553.025,261.023s-3.414-13.262-3.7-13.91-4.158-6.417-13.245-7.966l-7.493.1s-10.593,3.563-12.5,6.181-2.574,15.206-2.574,15.206l20.949-4.841,14.339,3.3Z" transform="translate(-471.062 -237.649)"/><path class="t" d="M533.761,237.632h2.067a2.109,2.109,0,0,1,1.969,1.252,6.311,6.311,0,0,1,.5,2.1c.184,2.329.919,18.3.919,18.3l-9.4-.306.043-19.775-3.177.753.043-.577a1.673,1.673,0,0,1,.385-.955h0a1.758,1.758,0,0,1,1.261-.622Z" transform="translate(-471.215 -237.632)"/><path class="x" d="M549.609,263.177l-.236-5.253-14.751-4.378-19.049,6.662v4.753A60.79,60.79,0,0,1,549.609,263.177Z" transform="translate(-471.086 -237.816)"/><path class="t" d="M547.878,256.575l.631.6,5.007,3.641a67.829,67.829,0,0,0-19.8-2.888c-6.609.157-13.813,1.943-18.015,3.02-2.224.569-3.625.779-3.625.779l6.644-4.114h0a11.565,11.565,0,0,1,8.159-3.764l12.7-.447A11.527,11.527,0,0,1,547.878,256.575Z" transform="translate(-471.046 -237.814)"/><path class="e" d="M552.086,261.064a2.72,2.72,0,0,0-.315-.272,5.954,5.954,0,0,0-1.033-.63,17.905,17.905,0,0,0-4.185-1.392,47.02,47.02,0,0,0-14.487-.674c-2.81.236-5.506.411-7.949.8a57.83,57.83,0,0,0-6.373,1.426,24.48,24.48,0,0,0-2.381.814,4.162,4.162,0,0,0-1.654.989,1.745,1.745,0,0,0-.465,1.138.707.707,0,0,0,.1.42,1.755,1.755,0,0,1,.517-1.409,4.207,4.207,0,0,1,1.6-.875c.691-.237,1.488-.49,2.381-.719,1.75-.446,3.948-.936,6.347-1.3s5.094-.508,7.922-.744a51.133,51.133,0,0,1,14.357.5,20.256,20.256,0,0,1,4.141,1.235C551.6,260.758,552.05,261.116,552.086,261.064Z" transform="translate(-471.059 -237.865)"/><path class="e" d="M553.577,259.982a2.159,2.159,0,0,1-.411-.211l-1.146-.647-4.185-2.451h0c-.314-.4-.63-.822-.963-1.26a7.44,7.44,0,0,0-1.1-1.261,4.461,4.461,0,0,0-1.567-.813,7.623,7.623,0,0,0-1.882-.175c-2.626-.053-5.568,0-8.623.157-2.845.114-5.568.272-8.062.438a5.644,5.644,0,0,0-1.75.3,4.314,4.314,0,0,0-1.409.876c-.753.8-1.444,1.628-2.084,2.346h0l-4.955,2.408-1.357.639a3.353,3.353,0,0,1-.489.2,3.462,3.462,0,0,1,.455-.263l1.331-.7,4.911-2.5h-.043c.647-.735,1.295-1.541,2.074-2.381a4.62,4.62,0,0,1,1.506-.963,5.911,5.911,0,0,1,1.838-.324c2.495-.184,5.253-.35,8.063-.465,3.063-.13,5.987-.2,8.649-.13a7.743,7.743,0,0,1,1.961.2,4.571,4.571,0,0,1,1.655.876,7.137,7.137,0,0,1,1.129,1.321l.946,1.261h0l4.132,2.538,1.112.7A2.674,2.674,0,0,1,553.577,259.982Z" transform="translate(-471.063 -237.807)"/><path class="e" d="M529.822,253.155a2.367,2.367,0,0,1-.061-.656c0-.42,0-1.033-.052-1.75V240.191a.6.6,0,0,0-.575-.615.44.44,0,0,0-.072,0l-1.751.35a2.269,2.269,0,0,1-.656.087,2.739,2.739,0,0,1,.622-.21c.411-.114.98-.28,1.75-.464a.876.876,0,0,1,.951.793.785.785,0,0,1,0,.082v4.666c0,2.3,0,4.377-.069,5.891a13.482,13.482,0,0,1-.061,1.75A2.927,2.927,0,0,1,529.822,253.155Z" transform="translate(-471.215 -237.651)"/><path class="e" d="M539.042,252.85a9.291,9.291,0,0,1-.315-1.934c-.131-1.208-.227-2.88-.315-4.728s-.148-3.5-.175-4.736a10.651,10.651,0,0,1,0-1.961,11.759,11.759,0,0,1,.211,1.952c.087,1.208.184,2.88.271,4.728s.158,3.414.219,4.718A13.666,13.666,0,0,1,539.042,252.85Z" transform="translate(-471.348 -237.653)"/><path class="s" d="M643.2,317.173c-1.819,1.658-18.828,15.345-18.828,15.345l-8.8-8.466c.256-.729,3.974-6.642,4.249-7.675a7.864,7.864,0,0,0,.246-2.737,12.558,12.558,0,0,0-.607-3.373c-.435-.947.531-1.951,1.364-1.478s2.084,3.107,2.046,6.5,13.262-4.395,15.156-2.491Z" transform="translate(-470.262 -240.448)"/></g></g></svg>